<svg width="25" height="25" viewBox="0 0 25 25" fill="none" xmlns="http://www.w3.org/2000/svg">
<rect width="25" height="25" rx="6" fill="#6C3EB8"/>
<g clip-path="url(#clip0_103_314)">
<path d="M18.125 11.5625H13.4375V6.875C13.4375 6.3575 13.0175 5.9375 12.5 5.9375C11.9825 5.9375 11.5625 6.3575 11.5625 6.875V11.5625H6.875C6.3575 11.5625 5.9375 11.9825 5.9375 12.5C5.9375 13.0175 6.3575 13.4375 6.875 13.4375H11.5625V18.125C11.5625 18.6425 11.9825 19.0625 12.5 19.0625C13.0175 19.0625 13.4375 18.6425 13.4375 18.125V13.4375H18.125C18.6425 13.4375 19.0625 13.0175 19.0625 12.5C19.0625 11.9825 18.6425 11.5625 18.125 11.5625Z" fill="white"/>
</g>
<defs>
<clipPath id="clip0_103_314">
<rect width="15" height="15" fill="white" transform="translate(5 5)"/>
</clipPath>
</defs>
</svg>
